<?xml version="1.0" encoding="UTF-8" standalone="no"?>
<!-- Generated by IcoMoon.io -->

<svg
   version="1.1"
   width="32"
   height="32"
   viewBox="0 0 32 32"
   id="svg1"
   sodipodi:docname="ubuntu.svg"
   inkscape:version="1.3.2 (091e20e, 2023-11-25)"
   xmlns:inkscape="http://www.inkscape.org/namespaces/inkscape"
   xmlns:sodipodi="http://sodipodi.sourceforge.net/DTD/sodipodi-0.dtd"
   xmlns="http://www.w3.org/2000/svg"
   xmlns:svg="http://www.w3.org/2000/svg">
  <defs
     id="defs1" />
  <sodipodi:namedview
     id="namedview1"
     pagecolor="#ffffff"
     bordercolor="#666666"
     borderopacity="1.0"
     inkscape:showpageshadow="2"
     inkscape:pageopacity="0.0"
     inkscape:pagecheckerboard="0"
     inkscape:deskcolor="#d1d1d1"
     inkscape:zoom="23.28125"
     inkscape:cx="16"
     inkscape:cy="16"
     inkscape:window-width="1704"
     inkscape:window-height="1005"
     inkscape:window-x="0"
     inkscape:window-y="28"
     inkscape:window-maximized="1"
     inkscape:current-layer="svg1" />
  <path
     fill="#444444"
     d="m 16,7.973 c -4.591145,0 -8.313,3.721855 -8.313,8.313 0,4.591145 3.721855,8.313 8.313,8.313 4.591145,0 8.313,-3.721855 8.313,-8.313 0,-4.591145 -3.721855,-8.313 -8.313,-8.313 z m 1.864969,2.862852 c 0.306419,-0.530539 0.985391,-0.712773 1.51593,-0.406354 0.530539,0.306419 0.712774,0.985391 0.40562,1.51593 -0.306419,0.530539 -0.984657,0.712774 -1.51593,0.40562 -0.531274,-0.307154 -0.712774,-0.984657 -0.406355,-1.515196 z M 16,11.464122 c 0.44677,0 0.878108,0.06173 1.288137,0.174887 0.07201,0.446034 0.337281,0.856798 0.759067,1.100758 0.421786,0.243959 0.90897,0.267474 1.330756,0.108018 0.820792,0.80683 1.355005,1.904649 1.432896,3.127387 l -1.581329,0.02351 c -0.145494,-1.656281 -1.535771,-2.954705 -3.228792,-2.954705 -0.48792,0 -0.950855,0.108754 -1.365293,0.301276 l -0.771559,-1.382189 c 0.644436,-0.318911 1.369701,-0.498942 2.136852,-0.498942 z m -5.652958,5.931454 c -0.6135729,0 -1.1103101,-0.496737 -1.1103101,-1.109576 0,-0.612839 0.4967372,-1.110311 1.1103101,-1.110311 0.612839,0 1.109576,0.496738 1.109576,1.110311 0,0.613573 -0.496737,1.109576 -1.109576,1.109576 z m 0.983922,0.0992 c 0.350509,-0.285844 0.574628,-0.720857 0.574628,-1.208776 0,-0.487919 -0.224119,-0.922932 -0.574628,-1.208776 0.300541,-1.161748 1.022867,-2.153753 1.993562,-2.802597 l 0.81124,1.359414 c -0.834019,0.587119 -1.378519,1.55561 -1.378519,2.652694 0,1.097084 0.5445,2.065574 1.378519,2.651959 l -0.81124,1.359414 c -0.97143,-0.648844 -1.693756,-1.640849 -1.993562,-2.803332 z m 8.05067,4.646991 c -0.531274,0.30642 -1.209511,0.12492 -1.51593,-0.406354 -0.306419,-0.531274 -0.124919,-1.208776 0.406354,-1.51593 0.530539,-0.30642 1.209511,-0.124185 1.515196,0.406354 0.305684,0.530539 0.124919,1.209511 -0.406355,1.51593 z m -0.0037,-2.418287 c -0.421786,-0.159455 -0.90897,-0.135206 -1.330756,0.108019 -0.421786,0.243959 -0.68632,0.654723 -0.759067,1.100757 -0.410029,0.113897 -0.842102,0.175622 -1.288137,0.175622 -0.76715,0 -1.492416,-0.18003 -2.136852,-0.499676 l 0.77156,-1.382194 c 0.415172,0.193257 0.877373,0.301276 1.365292,0.301276 1.693756,0 3.083298,-1.298424 3.228792,-2.954705 l 1.582064,0.02351 c -0.07789,1.222738 -0.612104,2.320557 -1.432896,3.127387 z"
     id="path1"
     style="stroke-width:0.734818;fill:#ffffff" />
</svg>
